# xmcd
#
# Track frame offsets: 
#        180
#        14579
#        31288
#        48026
#        59326
#        73960
#        88234
#        104451
#        122754
#        140587
#        158597
#        173313
#        187512
#        215211
#        237798
#        253970
#
# Disc length: 3615 seconds
#
# Revision: 2
# Processed by: cddbd v1.5PL3 Copyright (c) Steve Scherf et al.
# Submitted via: ExactAudioCopy v0.95a5
#
DISCID=dd0e1d10
DTITLE=Various Artist - CMT Collection '97
DYEAR=1997
DGENRE=Country
TTITLE0=Terri Clark - Poor, Poor Pitiful Me
TTITLE1=John Berry - She's Taken A Shine
TTITLE2=Michelle Wright - The Answer Is Yes
TTITLE3=Alan Jackson - Tall, Tall Trees
TTITLE4=Mindy McCready - Guys Do It All The Time
TTITLE5=Mavericks - I Don't Care If You Don't Love Me Anymore
TTITLE6=Prairie Oyster - Unbelievable Love
TTITLE7=Trace Adkins - (This Ain't) No Thinkin' Thing
TTITLE8=Tanya Tucker - Ridin' Out The Heartache
TTITLE9=Clint Black - Half Way Up
TTITLE10=Trisha Yearwood - Everybody Knows
TTITLE11=Vince Gill - A Little More Love
TTITLE12=Wynonna - Heaven Help My Heart
TTITLE13=Rankin Family - Forty Days And Nights
TTITLE14=Brooks And Dunn - A Man This Lonely
TTITLE15=Alison Krauss - Baby, Now That I Found You
EXTD=
EXTT0=
EXTT1=
EXTT2=
EXTT3=
EXTT4=
EXTT5=
EXTT6=
EXTT7=
EXTT8=
EXTT9=
EXTT10=
EXTT11=
EXTT12=
EXTT13=
EXTT14=
EXTT15=
PLAYORDER=
